<svg xmlns="http://www.w3.org/2000/svg" width="246" height="34" viewBox="0 0 246 34" fill="none">
  <g clip-path="url(#clip0_4716_99363)">
    <path d="M44.1603 0.523193H70.6427L69.4975 8.0004H51.8903L51.2461 12.2624H61.7675L60.5507 19.9639H50.1009L49.3852 25.0484H68.7102L67.4934 32.9742H39.2217L44.1603 0.523193Z" fill="white"/>
    <path d="M84.1037 8.5238H73.0098L74.2265 0.523193H105.29L104.001 8.5238H92.9073L89.1855 32.9742H80.3819L84.1037 8.5238Z" fill="white"/>
    <path d="M105.931 18.3191C105.573 7.77629 112.587 0 122.178 0C133.344 0 136.636 7.77629 136.994 11.5149H127.976C127.546 10.6176 125.972 8.2997 122.464 8.2997C117.526 8.2997 114.734 12.7112 114.949 17.8705C115.092 22.0578 117.311 25.1982 121.176 25.1982C124.755 25.1982 126.329 23.0298 126.83 22.2073H135.777C135.205 25.1234 131.554 33.4979 121.462 33.4979C112.229 33.4979 106.217 27.2918 105.931 18.3191Z" fill="white"/>
    <path d="M143.365 0.523193H152.24L149.305 20.0387L165.982 0.523193H174.857L169.919 32.9742H161.043L163.978 13.5335L147.301 32.9742H138.426L143.365 0.523193Z" fill="white"/>
    <path d="M189.029 8.5238H177.935L179.152 0.523193H210.215L208.998 8.5238H197.904L194.182 32.9742H185.379L189.029 8.5238Z" fill="white"/>
    <path d="M214.582 0.523193H223.458L220.452 20.1135L237.128 0.597965H246.004L241.065 33.049H232.19L235.124 13.6083L218.447 33.049H209.572L214.582 0.523193Z" fill="white"/>
    <path d="M23.8361 12.5619H15.963L16.6071 8.599H35.288L36.5047 0.598389H8.87713L7.08778 12.5619H1.14714L0.00195312 19.8896H5.9426L3.93853 32.9747H22.2615C30.8504 32.9747 36.5763 29.0865 36.29 21.1607C36.1468 15.6276 31.7093 12.5619 23.8361 12.5619ZM23.0488 24.8993H14.0305L14.8178 19.8896H24.1224C25.9833 19.8896 26.9138 20.5625 26.9138 21.8336C27.0569 23.8525 25.4823 24.8993 23.0488 24.8993Z" fill="white"/>
  </g>
  <defs>
    <clipPath id="clip0_4716_99363">
      <rect width="246" height="33.4979" fill="white"/>
    </clipPath>
  </defs>
</svg>