<svg width="125" height="40" viewBox="0 0 125 40" fill="none" xmlns="http://www.w3.org/2000/svg">
<path d="M18.8641 16.7818V21H4.84394V17.7083L11.5736 11.8808C12.1263 11.3932 12.5164 10.9624 12.744 10.5885C12.9878 10.2147 13.1097 9.80829 13.1097 9.3694C13.1097 8.88174 12.9553 8.48349 12.6464 8.17464C12.3538 7.86579 11.9312 7.71137 11.3785 7.71137C10.8421 7.71137 10.4195 7.89018 10.1106 8.24779C9.80178 8.58915 9.64735 9.0443 9.64735 9.61323V10.4422H4.89271V9.46693C4.89271 7.71137 5.46164 6.26466 6.5995 5.12679C7.73737 3.97267 9.33038 3.39561 11.3785 3.39561C13.4917 3.39561 15.1335 3.91578 16.3039 4.95611C17.4742 5.98019 18.0594 7.37001 18.0594 9.12557C18.0594 10.3447 17.7587 11.3932 17.1573 12.271C16.5721 13.1487 15.6455 14.1159 14.3776 15.1725L12.4758 16.7818H18.8641ZM28.9686 5.12679C30.204 3.94016 31.9027 3.34685 34.0646 3.34685C36.2266 3.34685 37.9252 3.94016 39.1606 5.12679C40.396 6.29717 41.0137 7.89018 41.0137 9.90582V14.7824C41.0137 16.798 40.396 18.3992 39.1606 19.5858C37.9252 20.7562 36.2266 21.3414 34.0646 21.3414C31.9027 21.3414 30.204 20.7562 28.9686 19.5858C27.7332 18.3992 27.1155 16.798 27.1155 14.7824V9.90582C27.1155 7.89018 27.7332 6.29717 28.9686 5.12679ZM32.5041 16.3185C32.8618 16.7411 33.3819 16.9525 34.0646 16.9525C34.7474 16.9525 35.2594 16.7411 35.6008 16.3185C35.9584 15.8959 36.1372 15.3351 36.1372 14.6361V10.0521C36.1372 9.35315 35.9584 8.79234 35.6008 8.36971C35.2594 7.94707 34.7474 7.73575 34.0646 7.73575C33.3819 7.73575 32.8618 7.94707 32.5041 8.36971C32.1628 8.79234 31.9921 9.35315 31.9921 10.0521V14.6361C31.9921 15.3351 32.1628 15.8959 32.5041 16.3185ZM46.089 5.12679C47.3244 3.94016 49.023 3.34685 51.185 3.34685C53.3469 3.34685 55.0456 3.94016 56.281 5.12679C57.5164 6.29717 58.1341 7.89018 58.1341 9.90582V14.7824C58.1341 16.798 57.5164 18.3992 56.281 19.5858C55.0456 20.7562 53.3469 21.3414 51.185 21.3414C49.023 21.3414 47.3244 20.7562 46.089 19.5858C44.8536 18.3992 44.2359 16.798 44.2359 14.7824V9.90582C44.2359 7.89018 44.8536 6.29717 46.089 5.12679ZM49.6245 16.3185C49.9821 16.7411 50.5023 16.9525 51.185 16.9525C51.8677 16.9525 52.3797 16.7411 52.7211 16.3185C53.0787 15.8959 53.2575 15.3351 53.2575 14.6361V10.0521C53.2575 9.35315 53.0787 8.79234 52.7211 8.36971C52.3797 7.94707 51.8677 7.73575 51.185 7.73575C50.5023 7.73575 49.9821 7.94707 49.6245 8.36971C49.2831 8.79234 49.1125 9.35315 49.1125 10.0521V14.6361C49.1125 15.3351 49.2831 15.8959 49.6245 16.3185ZM63.2093 5.12679C64.4447 3.94016 66.1434 3.34685 68.3053 3.34685C70.4673 3.34685 72.166 3.94016 73.4013 5.12679C74.6367 6.29717 75.2544 7.89018 75.2544 9.90582V14.7824C75.2544 16.798 74.6367 18.3992 73.4013 19.5858C72.166 20.7562 70.4673 21.3414 68.3053 21.3414C66.1434 21.3414 64.4447 20.7562 63.2093 19.5858C61.9739 18.3992 61.3562 16.798 61.3562 14.7824V9.90582C61.3562 7.89018 61.9739 6.29717 63.2093 5.12679ZM66.7448 16.3185C67.1025 16.7411 67.6226 16.9525 68.3053 16.9525C68.9881 16.9525 69.5001 16.7411 69.8415 16.3185C70.1991 15.8959 70.3779 15.3351 70.3779 14.6361V10.0521C70.3779 9.35315 70.1991 8.79234 69.8415 8.36971C69.5001 7.94707 68.9881 7.73575 68.3053 7.73575C67.6226 7.73575 67.1025 7.94707 66.7448 8.36971C66.4035 8.79234 66.2328 9.35315 66.2328 10.0521V14.6361C66.2328 15.3351 66.4035 15.8959 66.7448 16.3185Z" fill="#AFFC41"/>
<path d="M79.7061 10.1394V4.06245H83.4378C84.1511 4.06245 84.7046 4.23934 85.0983 4.59311C85.4977 4.94118 85.6974 5.45188 85.6974 6.12519C85.6974 6.7928 85.4977 7.30349 85.0983 7.65727C84.7046 8.01104 84.1511 8.18793 83.4378 8.18793H81.4521V10.1394H79.7061ZM83.2239 5.56885H81.4521V6.68153H83.2239C83.6746 6.68153 83.9 6.49608 83.9 6.12519C83.9 5.7543 83.6746 5.56885 83.2239 5.56885ZM89.217 10.1394H87.3169L88.5408 8.1109L85.8533 4.06245H87.9502L89.5337 6.45899L90.9801 4.06245H92.8803L89.217 10.1394ZM97.1099 6.32205C97.8403 6.32205 98.4081 6.47897 98.8132 6.7928C99.2183 7.10093 99.4209 7.55741 99.4209 8.16225C99.4209 8.81275 99.2183 9.30632 98.8132 9.64298C98.4081 9.97393 97.8403 10.1394 97.1099 10.1394H93.4809V4.06245H98.8731V5.56885H95.2269V6.32205H97.1099ZM96.9644 7.6915H95.2269V8.633H96.9644C97.4038 8.633 97.6235 8.47609 97.6235 8.16225C97.6235 7.84842 97.4038 7.6915 96.9644 7.6915ZM102.568 7.60591C102.522 8.07381 102.454 8.45897 102.363 8.76139C102.271 9.06381 102.134 9.332 101.952 9.56595C101.775 9.79989 101.538 9.96822 101.241 10.0709C100.945 10.1736 100.571 10.225 100.12 10.225H99.9831V8.47038H100.111C100.397 8.47038 100.597 8.39906 100.711 8.2564C100.825 8.10805 100.902 7.85127 100.942 7.48609L101.301 4.06245H106.377V10.1394H104.622V5.58597H102.782L102.568 7.60591ZM107.657 10.1394V4.06245H112.895V5.4747H109.411V6.27069H111.483V7.71718H109.411V8.65012H113.229V10.1394H107.657ZM117.241 2.51325C117.367 2.51325 117.458 2.47902 117.515 2.41054C117.578 2.34207 117.609 2.25648 117.609 2.15377V2.0853H118.885V2.17945C118.885 2.61311 118.748 2.96974 118.474 3.24934C118.2 3.52323 117.789 3.66017 117.241 3.66017C116.694 3.66017 116.283 3.52323 116.009 3.24934C115.735 2.96974 115.598 2.61311 115.598 2.17945V2.0853H116.873V2.15377C116.873 2.39343 116.996 2.51325 117.241 2.51325ZM114.143 10.1394V4.06245H115.898V7.72574L118.577 4.06245H120.331V10.1394H118.577V6.49323L115.898 10.1394H114.143ZM81.7014 19.215C80.9596 19.215 80.3804 19.0296 79.9639 18.6587C79.553 18.2821 79.3476 17.7429 79.3476 17.041C79.3476 16.3335 79.553 15.7942 79.9639 15.4233C80.3747 15.0525 80.951 14.867 81.6928 14.867H82.9424V13.9769H84.6885V14.867H85.9381C86.6799 14.867 87.2562 15.0525 87.667 15.4233C88.0779 15.7942 88.2833 16.3335 88.2833 17.041C88.2833 17.7429 88.075 18.2821 87.6585 18.6587C87.2476 19.0296 86.6713 19.215 85.9295 19.215H84.6885V20.225H82.9424V19.215H81.7014ZM82.9424 17.7086V16.3734H81.9153C81.6529 16.3734 81.4588 16.4276 81.3333 16.536C81.2135 16.6444 81.1536 16.8128 81.1536 17.041C81.1536 17.2521 81.2192 17.4176 81.3504 17.5374C81.4817 17.6516 81.67 17.7086 81.9153 17.7086H82.9424ZM85.7156 16.3734H84.6885V17.7086H85.7156C85.9609 17.7086 86.1492 17.6516 86.2805 17.5374C86.4117 17.4176 86.4773 17.2521 86.4773 17.041C86.4773 16.8128 86.4146 16.6444 86.289 16.536C86.1692 16.4276 85.978 16.3734 85.7156 16.3734ZM89.2515 20.1394V14.0624H92.9832C93.6965 14.0624 94.25 14.2393 94.6437 14.5931C95.0431 14.9412 95.2428 15.4519 95.2428 16.1252C95.2428 16.7928 95.0431 17.3035 94.6437 17.6573C94.25 18.011 93.6965 18.1879 92.9832 18.1879H90.9975V20.1394H89.2515ZM92.7693 15.5688H90.9975V16.6815H92.7693C93.22 16.6815 93.4454 16.4961 93.4454 16.1252C93.4454 15.7543 93.22 15.5688 92.7693 15.5688ZM96.2141 20.1394V14.0624H97.9687V17.7257L100.648 14.0624H102.402V20.1394H100.648V16.4932L97.9687 20.1394H96.2141ZM107.316 16.322C108.046 16.322 108.614 16.479 109.019 16.7928C109.424 17.1009 109.627 17.5574 109.627 18.1623C109.627 18.8127 109.424 19.3063 109.019 19.643C108.614 19.9739 108.046 20.1394 107.316 20.1394H103.687V14.0624H109.079V15.5688H105.433V16.322H107.316ZM107.17 17.6915H105.433V18.633H107.17C107.61 18.633 107.829 18.4761 107.829 18.1623C107.829 17.8484 107.61 17.6915 107.17 17.6915ZM110.658 20.1394V14.0624H115.896V15.4747H112.412V16.2707H114.483V17.7172H112.412V18.6501H116.23V20.1394H110.658ZM118.892 20.1394V15.5688H116.692V14.0624H122.838V15.5688H120.638V20.1394H118.892Z" fill="white"/>
<path d="M123.974 14.3516L123.977 14.8196L123.573 14.6648L123.417 15.0976L123.855 15.2595L123.542 15.636L123.913 15.9351L124.208 15.5656L124.504 15.9316L124.874 15.6325L124.562 15.2595L125 15.0976L124.844 14.6648L124.439 14.8196L124.443 14.3516H123.974Z" fill="white"/>
<path d="M8.22691 30.1182C9.25539 30.1182 10.022 30.2949 10.5268 30.6483C11.0379 31.0016 11.2934 31.4654 11.2934 32.0396C11.2934 32.3929 11.1925 32.6926 10.9906 32.9387C10.7887 33.1848 10.5394 33.3583 10.2429 33.4592C10.5962 33.5602 10.8896 33.7306 11.1231 33.9703C11.3565 34.2038 11.4733 34.4972 11.4733 34.8505C11.4733 35.5572 11.1925 36.103 10.6309 36.4879C10.0693 36.8728 9.2617 37.0652 8.20798 37.0652C7.62118 37.0652 7.10063 36.9832 6.64633 36.8192C6.19203 36.6551 5.84184 36.4469 5.59576 36.1945C5.34968 35.9421 5.1667 35.6929 5.04682 35.4468C4.92693 35.1944 4.86068 34.9578 4.84806 34.737H6.76937C6.95866 35.166 7.4382 35.3805 8.20798 35.3805C9.05979 35.3805 9.4857 35.1786 9.4857 34.7748C9.4857 34.4593 9.14497 34.3016 8.46352 34.3016H7.43189V32.7873H8.39727C9.00931 32.7873 9.31533 32.6327 9.31533 32.3235C9.31533 31.9765 8.94306 31.8029 8.19852 31.8029C7.49814 31.8029 7.04069 31.9575 6.82616 32.2667H4.90485C4.97426 31.661 5.2929 31.153 5.86077 30.7429C6.42864 30.3265 7.21736 30.1182 8.22691 30.1182ZM17.546 36.9517L17.1579 36.0052H14.186L13.798 36.9517H11.8294L14.6971 30.2318H16.7888L19.6376 36.9517H17.546ZM14.8486 34.4152H16.4954L15.672 32.4087L14.8486 34.4152Z" fill="white"/>
<path d="M22.7594 36.9517V30.2318H29.413V36.9517H27.4728V31.9165H24.6997V36.9517H22.7594ZM30.8283 36.9517V30.2318H36.6207V31.7935H32.7686V32.6737H35.059V34.2732H32.7686V35.3048H36.9898V36.9517H30.8283ZM38.0007 36.9517V30.2318H42.1273C42.916 30.2318 43.528 30.4274 43.9634 30.8186C44.4051 31.2035 44.6259 31.7682 44.6259 32.5128C44.6259 33.251 44.4051 33.8157 43.9634 34.2069C43.528 34.5981 42.916 34.7937 42.1273 34.7937H39.9315V36.9517H38.0007ZM41.8906 31.8976H39.9315V33.128H41.8906C42.3891 33.128 42.6383 32.9229 42.6383 32.5128C42.6383 32.1027 42.3891 31.8976 41.8906 31.8976ZM45.6999 36.9517V30.2318H49.8643C50.5836 30.2318 51.1389 30.399 51.5301 30.7334C51.9213 31.0616 52.1169 31.5032 52.1169 32.0585C52.1169 32.3803 52.0285 32.6548 51.8519 32.8819C51.6815 33.109 51.4701 33.2794 51.2177 33.393C51.5269 33.5066 51.7825 33.7022 51.9844 33.9798C52.1926 34.2574 52.2967 34.6108 52.2967 35.0398C52.2967 35.6329 52.0916 36.0998 51.6815 36.4406C51.2714 36.7813 50.6846 36.9517 49.9211 36.9517H45.6999ZM49.4857 31.7462H47.6023V32.7494H49.4857C49.9211 32.7494 50.1388 32.5822 50.1388 32.2478C50.1388 31.9134 49.9211 31.7462 49.4857 31.7462ZM49.5141 34.2637H47.6023V35.4373H49.5141C50.0441 35.4373 50.3091 35.2417 50.3091 34.8505C50.3091 34.4593 50.0441 34.2637 49.5141 34.2637ZM56.0413 36.9517H53.9402L55.2936 34.7086L52.3218 30.2318H54.6406L56.3915 32.8819L57.991 30.2318H60.0922L56.0413 36.9517ZM60.7563 36.9517V30.2318H62.6965V32.7494H63.2928C63.4632 31.9418 63.8607 31.3013 64.4853 30.8281C65.1163 30.3549 65.8609 30.1182 66.719 30.1182C67.7222 30.1182 68.5583 30.4369 69.2271 31.0742C69.8959 31.7114 70.2303 32.5506 70.2303 33.5917C70.2303 34.6202 69.8959 35.4563 69.2271 36.0998C68.5583 36.7434 67.7222 37.0652 66.719 37.0652C65.8609 37.0652 65.1195 36.8286 64.4948 36.3554C63.8702 35.8759 63.4695 35.2354 63.2928 34.4341H62.6965V36.9517H60.7563ZM65.5927 34.8505C65.8703 35.1786 66.2458 35.3427 66.719 35.3427C67.1922 35.3427 67.5676 35.1786 67.8453 34.8505C68.1229 34.5161 68.2617 34.0965 68.2617 33.5917C68.2617 33.087 68.1229 32.6705 67.8453 32.3424C67.5676 32.008 67.1922 31.8408 66.719 31.8408C66.2521 31.8408 65.8766 32.008 65.5927 32.3424C65.3151 32.6705 65.1763 33.087 65.1763 33.5917C65.1763 34.0965 65.3151 34.5161 65.5927 34.8505ZM76.8861 37.0652C75.8576 37.0652 75.0153 36.7403 74.3591 36.0904C73.7092 35.4342 73.3842 34.6013 73.3842 33.5917C73.3842 32.5759 73.7092 31.743 74.3591 31.0931C75.0153 30.4432 75.8576 30.1182 76.8861 30.1182C77.3215 30.1182 77.719 30.1782 78.0787 30.2981C78.4446 30.4117 78.7412 30.5568 78.9683 30.7334C79.2018 30.9038 79.4037 31.1026 79.5741 31.3297C79.7444 31.5506 79.8675 31.7556 79.9432 31.9449C80.0252 32.1342 80.0788 32.314 80.1041 32.4844H78.1355C77.8641 32.0616 77.4477 31.8503 76.8861 31.8503C76.4192 31.8503 76.0469 32.0175 75.7693 32.3519C75.498 32.68 75.3623 33.0933 75.3623 33.5917C75.3623 34.0902 75.498 34.5066 75.7693 34.8411C76.0469 35.1692 76.4192 35.3332 76.8861 35.3332C77.454 35.3332 77.8736 35.125 78.1449 34.7086H80.1041C80.0788 34.8537 80.0315 35.0177 79.9621 35.2007C79.8927 35.3774 79.7728 35.5793 79.6025 35.8064C79.4384 36.0336 79.2428 36.2387 79.0157 36.4216C78.7885 36.5983 78.4888 36.7497 78.1165 36.8759C77.7443 37.0021 77.3341 37.0652 76.8861 37.0652ZM83.1527 36.9517V31.8976H80.7203V30.2318H87.5159V31.8976H85.0835V36.9517H83.1527ZM92.828 36.9517L92.44 36.0052H89.4681L89.08 36.9517H87.1114L89.9792 30.2318H92.0708L94.9197 36.9517H92.828ZM90.1306 34.4152H91.7774L90.954 32.4087L90.1306 34.4152ZM95.7216 36.9517V30.2318H99.886C100.605 30.2318 101.161 30.399 101.552 30.7334C101.943 31.0616 102.139 31.5032 102.139 32.0585C102.139 32.3803 102.05 32.6548 101.874 32.8819C101.703 33.109 101.492 33.2794 101.239 33.393C101.549 33.5066 101.804 33.7022 102.006 33.9798C102.214 34.2574 102.318 34.6108 102.318 35.0398C102.318 35.6329 102.113 36.0998 101.703 36.4406C101.293 36.7813 100.706 36.9517 99.9428 36.9517H95.7216ZM99.5074 31.7462H97.624V32.7494H99.5074C99.9428 32.7494 100.16 32.5822 100.16 32.2478C100.16 31.9134 99.9428 31.7462 99.5074 31.7462ZM99.5358 34.2637H97.624V35.4373H99.5358C100.066 35.4373 100.331 35.2417 100.331 34.8505C100.331 34.4593 100.066 34.2637 99.5358 34.2637ZM103.43 36.9517V30.2318H105.37V33.0333L108.058 30.2318H110.538L107.452 33.4403L110.68 36.9517H108.058L105.37 34.0176V36.9517H103.43ZM114.446 36.9517H112.345L113.698 34.7086L110.727 30.2318H113.045L114.796 32.8819L116.396 30.2318H118.497L114.446 36.9517ZM119.19 34.6707V30.2318H121.045V34.6707H119.19ZM119.066 36.9517V35.1345H121.168V36.9517H119.066Z" fill="#AFFC41"/>
</svg>
