<svg width="118" height="51" viewBox="0 0 118 51" fill="none" xmlns="http://www.w3.org/2000/svg">
<rect x="1.37061" y="0.75" width="115.611" height="48.7001" rx="5.21797" stroke="#AFFC41" stroke-width="1.5"/>
<path d="M21.913 35.713V39H10.988V36.435L16.232 31.894C16.6627 31.514 16.9667 31.1783 17.144 30.887C17.334 30.5957 17.429 30.279 17.429 29.937C17.429 29.557 17.3087 29.2467 17.068 29.006C16.84 28.7653 16.5107 28.645 16.08 28.645C15.662 28.645 15.3327 28.7843 15.092 29.063C14.8513 29.329 14.731 29.6837 14.731 30.127V30.773H11.026V30.013C11.026 28.645 11.4693 27.5177 12.356 26.631C13.2427 25.7317 14.484 25.282 16.08 25.282C17.7267 25.282 19.006 25.6873 19.918 26.498C20.83 27.296 21.286 28.379 21.286 29.747C21.286 30.697 21.0517 31.514 20.583 32.198C20.127 32.882 19.405 33.6357 18.417 34.459L16.935 35.713H21.913ZM25.1296 26.631C26.0923 25.7063 27.416 25.244 29.1006 25.244C30.7853 25.244 32.109 25.7063 33.0716 26.631C34.0343 27.543 34.5156 28.7843 34.5156 30.355V34.155C34.5156 35.7257 34.0343 36.9733 33.0716 37.898C32.109 38.81 30.7853 39.266 29.1006 39.266C27.416 39.266 26.0923 38.81 25.1296 37.898C24.167 36.9733 23.6856 35.7257 23.6856 34.155V30.355C23.6856 28.7843 24.167 27.543 25.1296 26.631ZM27.8846 35.352C28.1633 35.6813 28.5686 35.846 29.1006 35.846C29.6326 35.846 30.0316 35.6813 30.2976 35.352C30.5763 35.0227 30.7156 34.5857 30.7156 34.041V30.469C30.7156 29.9243 30.5763 29.4873 30.2976 29.158C30.0316 28.8287 29.6326 28.664 29.1006 28.664C28.5686 28.664 28.1633 28.8287 27.8846 29.158C27.6186 29.4873 27.4856 29.9243 27.4856 30.469V34.041C27.4856 34.5857 27.6186 35.0227 27.8846 35.352ZM38.4705 26.631C39.4331 25.7063 40.7568 25.244 42.4415 25.244C44.1261 25.244 45.4498 25.7063 46.4125 26.631C47.3751 27.543 47.8565 28.7843 47.8565 30.355V34.155C47.8565 35.7257 47.3751 36.9733 46.4125 37.898C45.4498 38.81 44.1261 39.266 42.4415 39.266C40.7568 39.266 39.4331 38.81 38.4705 37.898C37.5078 36.9733 37.0265 35.7257 37.0265 34.155V30.355C37.0265 28.7843 37.5078 27.543 38.4705 26.631ZM41.2255 35.352C41.5041 35.6813 41.9095 35.846 42.4415 35.846C42.9735 35.846 43.3725 35.6813 43.6385 35.352C43.9171 35.0227 44.0565 34.5857 44.0565 34.041V30.469C44.0565 29.9243 43.9171 29.4873 43.6385 29.158C43.3725 28.8287 42.9735 28.664 42.4415 28.664C41.9095 28.664 41.5041 28.8287 41.2255 29.158C40.9595 29.4873 40.8265 29.9243 40.8265 30.469V34.041C40.8265 34.5857 40.9595 35.0227 41.2255 35.352ZM51.8113 26.631C52.7739 25.7063 54.0976 25.244 55.7823 25.244C57.4669 25.244 58.7906 25.7063 59.7533 26.631C60.7159 27.543 61.1973 28.7843 61.1973 30.355V34.155C61.1973 35.7257 60.7159 36.9733 59.7533 37.898C58.7906 38.81 57.4669 39.266 55.7823 39.266C54.0976 39.266 52.7739 38.81 51.8113 37.898C50.8486 36.9733 50.3673 35.7257 50.3673 34.155V30.355C50.3673 28.7843 50.8486 27.543 51.8113 26.631ZM54.5663 35.352C54.8449 35.6813 55.2503 35.846 55.7823 35.846C56.3143 35.846 56.7133 35.6813 56.9793 35.352C57.2579 35.0227 57.3973 34.5857 57.3973 34.041V30.469C57.3973 29.9243 57.2579 29.4873 56.9793 29.158C56.7133 28.8287 56.3143 28.664 55.7823 28.664C55.2503 28.664 54.8449 28.8287 54.5663 29.158C54.3003 29.4873 54.1673 29.9243 54.1673 30.469V34.041C54.1673 34.5857 54.3003 35.0227 54.5663 35.352ZM63.8791 39V25.51H72.2391C73.6831 25.51 74.7978 25.8457 75.5831 26.517C76.3684 27.1757 76.7611 28.0623 76.7611 29.177C76.7611 29.823 76.5838 30.374 76.2291 30.83C75.8871 31.286 75.4628 31.628 74.9561 31.856C75.5768 32.084 76.0898 32.4767 76.4951 33.034C76.9131 33.5913 77.1221 34.3007 77.1221 35.162C77.1221 36.3527 76.7104 37.29 75.8871 37.974C75.0638 38.658 73.8858 39 72.3531 39H63.8791ZM71.4791 28.55H67.6981V30.564H71.4791C72.3531 30.564 72.7901 30.2283 72.7901 29.557C72.7901 28.8857 72.3531 28.55 71.4791 28.55ZM71.5361 33.604H67.6981V35.96H71.5361C72.6001 35.96 73.1321 35.5673 73.1321 34.782C73.1321 33.9967 72.6001 33.604 71.5361 33.604ZM79.3537 39V25.51H90.9817V28.645H83.2487V30.412H87.8467V33.623H83.2487V35.694H91.7227V39H79.3537ZM97.6326 39V28.854H92.7496V25.51H106.392V28.854H101.509V39H97.6326Z" fill="#AFFC41"/>
<path d="M22.7755 16V8.62909H30.0737V16H27.9455V10.477H24.9037V16H22.7755ZM31.6262 16V8.62909H36.1525C37.0176 8.62909 37.689 8.84364 38.1665 9.27275C38.651 9.69493 38.8932 10.3144 38.8932 11.131C38.8932 11.9408 38.651 12.5602 38.1665 12.9893C37.689 13.4185 37.0176 13.633 36.1525 13.633H33.744V16H31.6262ZM35.893 10.4562H33.744V11.8058H35.893C36.4397 11.8058 36.7131 11.5809 36.7131 11.131C36.7131 10.6812 36.4397 10.4562 35.893 10.4562ZM43.7049 16.1246C42.5698 16.1246 41.6251 15.7716 40.8707 15.0657C40.1232 14.3597 39.7495 13.4427 39.7495 12.3145C39.7495 11.1726 40.1232 10.2521 40.8707 9.55305C41.6251 8.85402 42.5698 8.50451 43.7049 8.50451C44.8399 8.50451 45.7812 8.85402 46.5286 9.55305C47.283 10.2521 47.6602 11.1726 47.6602 12.3145C47.6602 13.4427 47.283 14.3597 46.5286 15.0657C45.7743 15.7716 44.833 16.1246 43.7049 16.1246ZM42.3968 13.6953C42.7221 14.0552 43.1581 14.2351 43.7049 14.2351C44.2516 14.2351 44.6876 14.0552 45.0129 13.6953C45.3382 13.3285 45.5009 12.8682 45.5009 12.3145C45.5009 11.7609 45.3382 11.3041 45.0129 10.9442C44.6876 10.5774 44.2516 10.394 43.7049 10.394C43.1581 10.394 42.7221 10.5774 42.3968 10.9442C42.0715 11.3041 41.9089 11.7609 41.9089 12.3145C41.9089 12.8682 42.0715 13.3285 42.3968 13.6953ZM48.8916 16V8.62909H51.9749L53.501 12.7194L55.0271 8.62909H57.9755V16H55.8991V10.9649L54.0616 16H52.6497L50.8433 11.0065V16H48.8916ZM63.1703 16.1246C62.0352 16.1246 61.0905 15.7716 60.3361 15.0657C59.5887 14.3597 59.2149 13.4427 59.2149 12.3145C59.2149 11.1726 59.5887 10.2521 60.3361 9.55305C61.0905 8.85402 62.0352 8.50451 63.1703 8.50451C64.3053 8.50451 65.2466 8.85402 65.9941 9.55305C66.7485 10.2521 67.1257 11.1726 67.1257 12.3145C67.1257 13.4427 66.7485 14.3597 65.9941 15.0657C65.2397 15.7716 64.2984 16.1246 63.1703 16.1246ZM61.8622 13.6953C62.1875 14.0552 62.6235 14.2351 63.1703 14.2351C63.7171 14.2351 64.1531 14.0552 64.4784 13.6953C64.8037 13.3285 64.9663 12.8682 64.9663 12.3145C64.9663 11.7609 64.8037 11.3041 64.4784 10.9442C64.1531 10.5774 63.7171 10.394 63.1703 10.394C62.6235 10.394 62.1875 10.5774 61.8622 10.9442C61.5369 11.3041 61.3743 11.7609 61.3743 12.3145C61.3743 12.8682 61.5369 13.3285 61.8622 13.6953ZM68.357 16V8.62909H70.4852V11.702L73.4336 8.62909H76.1536L72.7692 12.1484L76.3093 16H73.4336L70.4852 12.7817V16H68.357ZM80.1012 16.1246C78.9661 16.1246 78.0214 15.7716 77.267 15.0657C76.5195 14.3597 76.1458 13.4427 76.1458 12.3145C76.1458 11.1726 76.5195 10.2521 77.267 9.55305C78.0214 8.85402 78.9661 8.50451 80.1012 8.50451C81.2362 8.50451 82.1775 8.85402 82.9249 9.55305C83.6793 10.2521 84.0565 11.1726 84.0565 12.3145C84.0565 13.4427 83.6793 14.3597 82.9249 15.0657C82.1706 15.7716 81.2293 16.1246 80.1012 16.1246ZM78.7931 13.6953C79.1184 14.0552 79.5544 14.2351 80.1012 14.2351C80.6479 14.2351 81.084 14.0552 81.4092 13.6953C81.7345 13.3285 81.8972 12.8682 81.8972 12.3145C81.8972 11.7609 81.7345 11.3041 81.4092 10.9442C81.084 10.5774 80.6479 10.394 80.1012 10.394C79.5544 10.394 79.1184 10.5774 78.7931 10.9442C78.4678 11.3041 78.3052 11.7609 78.3052 12.3145C78.3052 12.8682 78.4678 13.3285 78.7931 13.6953ZM86.2442 8.62909H92.2448V14.1521H93.2829V17.6818H91.3623V16H86.4311V17.6818H84.5105V14.1521H85.2476C85.5452 13.6261 85.7528 12.8509 85.8705 11.8266L86.2442 8.62909ZM90.1165 14.1521V10.477H88.0091L87.843 11.8993C87.7322 12.8544 87.5454 13.6053 87.2824 14.1521H90.1165Z" fill="white"/>
</svg>
