<svg width="1920" height="420" viewBox="0 0 1920 420" fill="none" xmlns="http://www.w3.org/2000/svg">
<g clip-path="url(#clip0_8706_9240)">
<path d="M1854.25 100.084L3063.14 315.485L3253 125.869L1932.54 14.7183C1912.5 44.5761 1886.15 73.1211 1854.25 100.084Z" fill="#FF0000"/>
<path d="M44.5977 78.5068C17.5667 52.5537 -4.42981 25.2542 -20.8173 -3.08887L-1333 107.389L-1124.42 315.687L-1110.23 312.893L-1157.33 282.26L44.6313 78.4731L44.5977 78.5068Z" fill="#05A4FB"/>
<path d="M424.552 273.945L-261.426 713.397L228.645 815.325L610.896 315.955C545.346 304.847 482.972 290.709 424.585 273.945H424.552Z" fill="#FF9200"/>
<path d="M632.148 319.456L228.61 815.359L688.271 841.682L820.858 340.158C755.781 336.017 692.698 329.016 632.182 319.456H632.148Z" fill="#05A4FB"/>
<path d="M610.862 315.989L228.61 815.359L632.148 319.457C625.019 318.346 617.923 317.167 610.862 315.989Z" fill="#05A4FB"/>
<path d="M961.419 344.601C914.385 344.601 868.129 343.12 822.818 340.292L688.271 841.681L1166.01 850.097L1046.23 342.985C1018.29 344.062 990.004 344.601 961.453 344.601H961.419Z" fill="white"/>
<path d="M820.825 340.158L688.238 841.682L822.785 340.292C822.143 340.259 821.467 340.225 820.825 340.158Z" fill="white"/>
<path d="M408.13 269.132C358.122 254.152 311.19 237.187 267.771 218.471L-608.537 587.604L-634.724 575.25L-639.623 577.203L-270.752 719.356L-261.46 713.398L-288.762 707.709L408.13 269.098V269.132Z" fill="#00BB52"/>
<path d="M408.129 269.133L-288.762 707.743L-261.46 713.432L424.517 273.98C419.009 272.398 413.536 270.782 408.129 269.167V269.133Z" fill="#00BB52"/>
<path d="M51.4904 85.0034L-1110.27 312.926L-925.34 433.132L137.381 150.374C105.079 129.773 76.3251 107.927 51.4904 85.0371V85.0034Z" fill="white"/>
<path d="M44.5973 78.5078L-1157.37 282.295L-1110.27 312.927L51.4902 85.0045C49.1588 82.8501 46.8612 80.6958 44.5973 78.5078Z" fill="white"/>
<path d="M141.977 153.235L-897.159 451.376L-634.723 575.251L262.4 216.149C218.34 196.894 177.996 175.822 141.977 153.235Z" fill="#FF0000"/>
<path d="M267.772 218.506C265.981 217.732 264.19 216.957 262.4 216.183L-634.723 575.285L-608.537 587.639L267.772 218.506Z" fill="#FF0000"/>
<path d="M137.381 150.341L-925.34 433.098L-897.194 451.41L141.942 153.27C140.422 152.293 138.867 151.351 137.347 150.375L137.381 150.341Z" fill="#FF0000"/>
<path d="M1453.92 285.996L2107.87 750.291L2576.38 626.281L2560.16 619.414L1616.24 234.393C1566.07 253.917 1511.73 271.219 1453.96 285.996H1453.92Z" fill="#FF9200"/>
<path d="M1632.83 227.796L2560.13 619.415L2577.53 626.518L2895.82 489.852L1750.32 171.447C1714.6 191.711 1675.27 210.562 1632.8 227.796H1632.83Z" fill="#05A4FB"/>
<path d="M1616.21 234.393L2560.13 619.415L1632.83 227.795C1627.36 230.017 1621.82 232.205 1616.24 234.393H1616.21Z" fill="#05A4FB"/>
<path d="M3044.39 334.2L1853.64 100.588C1824.14 125.431 1789.92 148.926 1751.5 170.773L2895.82 489.851L3147.38 330.497L3063.11 315.484L3044.39 334.2Z" fill="white"/>
<path d="M1853.64 100.589L3044.39 334.201L3063.11 315.485L1854.22 100.084C1854.01 100.252 1853.81 100.421 1853.61 100.589H1853.64Z" fill="white"/>
<path d="M1750.32 171.446L2895.82 489.851L1751.5 170.773C1751.09 171.009 1750.72 171.211 1750.32 171.446Z" fill="white"/>
<path d="M1263.96 323.497L1659.39 815.36L2107.83 750.292L1438.11 289.97C1382.9 303.502 1324.65 314.778 1263.96 323.497Z" fill="#00BB52"/>
<path d="M1438.14 289.936L2107.87 750.258L1453.92 285.964C1448.69 287.31 1443.42 288.623 1438.14 289.936Z" fill="#00BB52"/>
<path d="M1053.73 342.684L1165.98 850.099L1659.39 815.36L1258.59 324.237C1192.87 333.494 1124.35 339.755 1053.73 342.684Z" fill="#FF0000"/>
<path d="M1046.2 342.985L1165.98 850.097L1053.73 342.682C1051.23 342.783 1048.7 342.884 1046.2 342.985Z" fill="#FF0000"/>
<path d="M1258.59 324.237L1659.39 815.359L1263.96 323.496C1262.17 323.765 1260.38 324.001 1258.59 324.27V324.237Z" fill="#FF0000"/>
</g>
<defs>
<clipPath id="clip0_8706_9240">
<rect width="1920" height="420" fill="white"/>
</clipPath>
</defs>
</svg>
