<svg width="245" height="40" viewBox="0 0 245 40" fill="none" xmlns="http://www.w3.org/2000/svg">
<rect x="1" y="1" width="243" height="37.0164" rx="4.7377" stroke="#AFFC41" stroke-width="2"/>
<path d="M37.7687 24V13.2956H47.1163V24H45.6538V14.6525H39.2312V24H37.7687ZM49.4508 24V13.2956H55.0141C56.19 13.2956 57.0846 13.567 57.6977 14.1097C58.3108 14.6424 58.6174 15.4013 58.6174 16.3863C58.6174 17.3512 58.3058 18.1201 57.6826 18.693C57.0595 19.2559 56.1699 19.5373 55.0141 19.5373H50.9132V24H49.4508ZM55.0593 14.6525H50.9132V18.1804H55.0593C55.7227 18.1804 56.2302 18.0196 56.582 17.698C56.9338 17.3763 57.1097 16.9492 57.1097 16.4164C57.1097 15.8536 56.9338 15.4214 56.582 15.1199C56.2403 14.8083 55.7327 14.6525 55.0593 14.6525ZM65.1202 24.1809C63.5322 24.1809 62.2105 23.6532 61.1551 22.5979C60.1098 21.5425 59.5871 20.2258 59.5871 18.6478C59.5871 17.0798 60.1148 15.7682 61.1702 14.7128C62.2255 13.6474 63.5422 13.1147 65.1202 13.1147C66.6882 13.1147 67.9999 13.6474 69.0552 14.7128C70.1207 15.7682 70.6534 17.0798 70.6534 18.6478C70.6534 20.2158 70.1207 21.5325 69.0552 22.5979C67.9999 23.6532 66.6882 24.1809 65.1202 24.1809ZM62.2105 21.633C62.9643 22.427 63.9342 22.824 65.1202 22.824C66.3063 22.824 67.2712 22.422 68.015 21.6179C68.7688 20.8138 69.1457 19.8238 69.1457 18.6478C69.1457 17.4819 68.7688 16.4969 68.015 15.6928C67.2712 14.8786 66.3063 14.4716 65.1202 14.4716C63.9342 14.4716 62.9643 14.8786 62.2105 15.6928C61.4667 16.4969 61.0948 17.4819 61.0948 18.6478C61.0948 19.8338 61.4667 20.8289 62.2105 21.633ZM72.3732 24V13.2956H74.6347L78.3586 21.9797L82.0825 13.2956H84.2686V24H82.8816V14.562L78.7958 24.0603H77.7857L73.7301 14.6223V24H72.3732ZM91.5173 24.1809C89.9293 24.1809 88.6075 23.6532 87.5522 22.5979C86.5069 21.5425 85.9842 20.2258 85.9842 18.6478C85.9842 17.0798 86.5119 15.7682 87.5672 14.7128C88.6226 13.6474 89.9393 13.1147 91.5173 13.1147C93.0853 13.1147 94.397 13.6474 95.4523 14.7128C96.5177 15.7682 97.0505 17.0798 97.0505 18.6478C97.0505 20.2158 96.5177 21.5325 95.4523 22.5979C94.397 23.6532 93.0853 24.1809 91.5173 24.1809ZM88.6075 21.633C89.3614 22.427 90.3313 22.824 91.5173 22.824C92.7034 22.824 93.6683 22.422 94.412 21.6179C95.1659 20.8138 95.5428 19.8238 95.5428 18.6478C95.5428 17.4819 95.1659 16.4969 94.412 15.6928C93.6683 14.8786 92.7034 14.4716 91.5173 14.4716C90.3313 14.4716 89.3614 14.8786 88.6075 15.6928C87.8638 16.4969 87.4919 17.4819 87.4919 18.6478C87.4919 19.8338 87.8638 20.8289 88.6075 21.633ZM98.7702 24V13.2956H100.233V18.2407L106.399 13.2956H108.465L101.906 18.5423L108.736 24H106.64L100.233 19.0247V24H98.7702ZM113.865 24.1809C112.277 24.1809 110.956 23.6532 109.9 22.5979C108.855 21.5425 108.332 20.2258 108.332 18.6478C108.332 17.0798 108.86 15.7682 109.915 14.7128C110.971 13.6474 112.287 13.1147 113.865 13.1147C115.433 13.1147 116.745 13.6474 117.801 14.7128C118.866 15.7682 119.399 17.0798 119.399 18.6478C119.399 20.2158 118.866 21.5325 117.801 22.5979C116.745 23.6532 115.433 24.1809 113.865 24.1809ZM110.956 21.633C111.71 22.427 112.679 22.824 113.865 22.824C115.052 22.824 116.016 22.422 116.76 21.6179C117.514 20.8138 117.891 19.8238 117.891 18.6478C117.891 17.4819 117.514 16.4969 116.76 15.6928C116.016 14.8786 115.052 14.4716 113.865 14.4716C112.679 14.4716 111.71 14.8786 110.956 15.6928C110.212 16.4969 109.84 17.4819 109.84 18.6478C109.84 19.8338 110.212 20.8289 110.956 21.633ZM122.251 13.2956H130.046V22.6431H131.704V26.4273H130.392V24H120.849V26.4273H119.537V22.6431H120.728C121.16 21.9898 121.457 20.8691 121.618 19.281L122.251 13.2956ZM128.583 22.6431V14.6525H123.502L123.005 19.3865C122.844 20.8942 122.598 21.9797 122.266 22.6431H128.583Z" fill="white"/>
<path d="M147.466 21.3917V24H138.797V21.9647L142.958 18.3613C143.3 18.0598 143.541 17.7934 143.682 17.5623C143.833 17.3311 143.908 17.0798 143.908 16.8084C143.908 16.5069 143.813 16.2607 143.622 16.0697C143.441 15.8787 143.18 15.7832 142.838 15.7832C142.506 15.7832 142.245 15.8938 142.054 16.1149C141.863 16.326 141.767 16.6074 141.767 16.9592V17.4718H138.827V16.8687C138.827 15.7832 139.179 14.8887 139.883 14.1851C140.586 13.4715 141.571 13.1147 142.838 13.1147C144.145 13.1147 145.16 13.4363 145.883 14.0796C146.607 14.7128 146.969 15.5722 146.969 16.6577C146.969 17.4115 146.783 18.0598 146.411 18.6026C146.049 19.1453 145.476 19.7434 144.692 20.3967L143.516 21.3917H147.466ZM150.019 14.1851C150.783 13.4514 151.833 13.0845 153.17 13.0845C154.507 13.0845 155.557 13.4514 156.321 14.1851C157.085 14.9088 157.467 15.8938 157.467 17.1401V20.1555C157.467 21.4018 157.085 22.3918 156.321 23.1256C155.557 23.8492 154.507 24.2111 153.17 24.2111C151.833 24.2111 150.783 23.8492 150.019 23.1256C149.255 22.3918 148.873 21.4018 148.873 20.1555V17.1401C148.873 15.8938 149.255 14.9088 150.019 14.1851ZM152.205 21.1053C152.426 21.3666 152.748 21.4973 153.17 21.4973C153.592 21.4973 153.909 21.3666 154.12 21.1053C154.341 20.844 154.451 20.4972 154.451 20.065V17.2306C154.451 16.7984 154.341 16.4516 154.12 16.1903C153.909 15.929 153.592 15.7983 153.17 15.7983C152.748 15.7983 152.426 15.929 152.205 16.1903C151.994 16.4516 151.888 16.7984 151.888 17.2306V20.065C151.888 20.4972 151.994 20.844 152.205 21.1053ZM160.605 14.1851C161.369 13.4514 162.419 13.0845 163.756 13.0845C165.093 13.0845 166.143 13.4514 166.907 14.1851C167.671 14.9088 168.053 15.8938 168.053 17.1401V20.1555C168.053 21.4018 167.671 22.3918 166.907 23.1256C166.143 23.8492 165.093 24.2111 163.756 24.2111C162.419 24.2111 161.369 23.8492 160.605 23.1256C159.841 22.3918 159.459 21.4018 159.459 20.1555V17.1401C159.459 15.8938 159.841 14.9088 160.605 14.1851ZM162.791 21.1053C163.012 21.3666 163.334 21.4973 163.756 21.4973C164.178 21.4973 164.495 21.3666 164.706 21.1053C164.927 20.844 165.037 20.4972 165.037 20.065V17.2306C165.037 16.7984 164.927 16.4516 164.706 16.1903C164.495 15.929 164.178 15.7983 163.756 15.7983C163.334 15.7983 163.012 15.929 162.791 16.1903C162.58 16.4516 162.474 16.7984 162.474 17.2306V20.065C162.474 20.4972 162.58 20.844 162.791 21.1053ZM171.191 14.1851C171.955 13.4514 173.005 13.0845 174.342 13.0845C175.679 13.0845 176.729 13.4514 177.493 14.1851C178.257 14.9088 178.639 15.8938 178.639 17.1401V20.1555C178.639 21.4018 178.257 22.3918 177.493 23.1256C176.729 23.8492 175.679 24.2111 174.342 24.2111C173.005 24.2111 171.955 23.8492 171.191 23.1256C170.427 22.3918 170.045 21.4018 170.045 20.1555V17.1401C170.045 15.8938 170.427 14.9088 171.191 14.1851ZM173.377 21.1053C173.598 21.3666 173.92 21.4973 174.342 21.4973C174.764 21.4973 175.081 21.3666 175.292 21.1053C175.513 20.844 175.623 20.4972 175.623 20.065V17.2306C175.623 16.7984 175.513 16.4516 175.292 16.1903C175.081 15.929 174.764 15.7983 174.342 15.7983C173.92 15.7983 173.598 15.929 173.377 16.1903C173.166 16.4516 173.06 16.7984 173.06 17.2306V20.065C173.06 20.4972 173.166 20.844 173.377 21.1053ZM180.767 24V13.2956H187.401C188.546 13.2956 189.431 13.5619 190.054 14.0946C190.677 14.6173 190.989 15.3209 190.989 16.2054C190.989 16.718 190.848 17.1552 190.567 17.517C190.295 17.8789 189.959 18.1503 189.556 18.3312C190.049 18.5121 190.456 18.8237 190.778 19.2659C191.109 19.7082 191.275 20.271 191.275 20.9545C191.275 21.8993 190.949 22.6431 190.295 23.1859C189.642 23.7286 188.707 24 187.491 24H180.767ZM186.797 15.7078H183.797V17.306H186.797C187.491 17.306 187.838 17.0396 187.838 16.5069C187.838 15.9742 187.491 15.7078 186.797 15.7078ZM186.843 19.7182H183.797V21.5877H186.843C187.687 21.5877 188.109 21.2762 188.109 20.653C188.109 20.0298 187.687 19.7182 186.843 19.7182ZM193.046 24V13.2956H202.273V15.7832H196.137V17.1854H199.785V19.7333H196.137V21.3767H202.861V24H193.046ZM207.55 24V15.9491H203.676V13.2956H214.501V15.9491H210.626V24H207.55Z" fill="#AFFC41"/>
</svg>
