<svg width="278" height="80" viewBox="0 0 278 80" fill="none" xmlns="http://www.w3.org/2000/svg">
<path d="M40.3786 37.5946V47H9.11772V39.6605L24.1229 26.6668C25.3552 25.5795 26.2251 24.619 26.7325 23.7854C27.2762 22.9518 27.548 22.0457 27.548 21.0671C27.548 19.9797 27.2037 19.0918 26.5151 18.4031C25.8627 17.7145 24.9203 17.3701 23.688 17.3701C22.4919 17.3701 21.5496 17.7688 20.8609 18.5662C20.1723 19.3273 19.828 20.3422 19.828 21.6107V23.4592H9.22645V21.2845C9.22645 17.3701 10.495 14.1444 13.0321 11.6073C15.5692 9.03391 19.1212 7.74723 23.688 7.74723C28.3998 7.74723 32.0605 8.90705 34.6701 11.2267C37.2797 13.5101 38.5845 16.609 38.5845 20.5234C38.5845 23.2417 37.914 25.5795 36.5729 27.5367C35.2681 29.4939 33.2022 31.6505 30.3751 34.0064L26.1345 37.5946H40.3786ZM62.9089 11.6073C65.6635 8.96142 69.451 7.6385 74.2716 7.6385C79.0921 7.6385 82.8796 8.96142 85.6342 11.6073C88.3888 14.2169 89.7661 17.7688 89.7661 22.2631V33.1365C89.7661 37.6308 88.3888 41.2009 85.6342 43.8467C82.8796 46.4563 79.0921 47.7611 74.2716 47.7611C69.451 47.7611 65.6635 46.4563 62.9089 43.8467C60.1543 41.2009 58.777 37.6308 58.777 33.1365V22.2631C58.777 17.7688 60.1543 14.2169 62.9089 11.6073ZM70.7921 36.5616C71.5895 37.5039 72.7493 37.9751 74.2716 37.9751C75.7938 37.9751 76.9355 37.5039 77.6967 36.5616C78.494 35.6192 78.8927 34.3688 78.8927 32.8103V22.5893C78.8927 21.0308 78.494 19.7804 77.6967 18.838C76.9355 17.8957 75.7938 17.4245 74.2716 17.4245C72.7493 17.4245 71.5895 17.8957 70.7921 18.838C70.0309 19.7804 69.6504 21.0308 69.6504 22.5893V32.8103C69.6504 34.3688 70.0309 35.6192 70.7921 36.5616ZM101.082 11.6073C103.837 8.96142 107.625 7.6385 112.445 7.6385C117.266 7.6385 121.053 8.96142 123.808 11.6073C126.562 14.2169 127.94 17.7688 127.94 22.2631V33.1365C127.94 37.6308 126.562 41.2009 123.808 43.8467C121.053 46.4563 117.266 47.7611 112.445 47.7611C107.625 47.7611 103.837 46.4563 101.082 43.8467C98.3278 41.2009 96.9505 37.6308 96.9505 33.1365V22.2631C96.9505 17.7688 98.3278 14.2169 101.082 11.6073ZM108.966 36.5616C109.763 37.5039 110.923 37.9751 112.445 37.9751C113.967 37.9751 115.109 37.5039 115.87 36.5616C116.668 35.6192 117.066 34.3688 117.066 32.8103V22.5893C117.066 21.0308 116.668 19.7804 115.87 18.838C115.109 17.8957 113.967 17.4245 112.445 17.4245C110.923 17.4245 109.763 17.8957 108.966 18.838C108.204 19.7804 107.824 21.0308 107.824 22.5893V32.8103C107.824 34.3688 108.204 35.6192 108.966 36.5616ZM139.256 11.6073C142.01 8.96142 145.798 7.6385 150.619 7.6385C155.439 7.6385 159.227 8.96142 161.981 11.6073C164.736 14.2169 166.113 17.7688 166.113 22.2631V33.1365C166.113 37.6308 164.736 41.2009 161.981 43.8467C159.227 46.4563 155.439 47.7611 150.619 47.7611C145.798 47.7611 142.01 46.4563 139.256 43.8467C136.501 41.2009 135.124 37.6308 135.124 33.1365V22.2631C135.124 17.7688 136.501 14.2169 139.256 11.6073ZM147.139 36.5616C147.936 37.5039 149.096 37.9751 150.619 37.9751C152.141 37.9751 153.283 37.5039 154.044 36.5616C154.841 35.6192 155.24 34.3688 155.24 32.8103V22.5893C155.24 21.0308 154.841 19.7804 154.044 18.838C153.283 17.8957 152.141 17.4245 150.619 17.4245C149.096 17.4245 147.936 17.8957 147.139 18.838C146.378 19.7804 145.997 21.0308 145.997 22.5893V32.8103C145.997 34.3688 146.378 35.6192 147.139 36.5616Z" fill="#AFFC41"/>
<path d="M175.869 24V10.4501H184.19C185.78 10.4501 187.015 10.8445 187.892 11.6333C188.783 12.4094 189.228 13.5481 189.228 15.0494C189.228 16.538 188.783 17.6767 187.892 18.4655C187.015 19.2544 185.78 19.6488 184.19 19.6488H179.762V24H175.869ZM183.713 13.809H179.762V16.2899H183.713C184.718 16.2899 185.221 15.8764 185.221 15.0494C185.221 14.2225 184.718 13.809 183.713 13.809ZM197.076 24H192.839L195.568 19.477L189.576 10.4501H194.251L197.782 15.7937L201.007 10.4501H205.244L197.076 24ZM214.675 15.4884C216.303 15.4884 217.569 15.8383 218.473 16.538C219.376 17.2251 219.828 18.2429 219.828 19.5915C219.828 21.0419 219.376 22.1425 218.473 22.8931C217.569 23.631 216.303 24 214.675 24H206.583V10.4501H218.606V13.809H210.476V15.4884H214.675ZM214.35 18.5419H210.476V20.6412H214.35C215.33 20.6412 215.82 20.2913 215.82 19.5915C215.82 18.8918 215.33 18.5419 214.35 18.5419ZM226.845 18.351C226.743 19.3943 226.59 20.2531 226.387 20.9274C226.183 21.6017 225.878 22.1997 225.471 22.7213C225.076 23.243 224.548 23.6183 223.887 23.8473C223.225 24.0763 222.392 24.1908 221.387 24.1908H221.081V20.2786H221.368C222.004 20.2786 222.449 20.1195 222.703 19.8014C222.958 19.4707 223.13 18.8981 223.219 18.0839L224.02 10.4501H235.337V24H231.425V13.8471H227.322L226.845 18.351ZM238.192 24V10.4501H249.871V13.599H242.104V15.3739H246.722V18.5991H242.104V20.6793H250.615V24H238.192ZM259.562 6.99585C259.842 6.99585 260.046 6.91952 260.173 6.76684C260.313 6.61417 260.383 6.42332 260.383 6.19431V6.04164H263.227V6.25157C263.227 7.21851 262.921 8.01369 262.311 8.63711C261.7 9.24781 260.784 9.55316 259.562 9.55316C258.341 9.55316 257.425 9.24781 256.814 8.63711C256.204 8.01369 255.898 7.21851 255.898 6.25157V6.04164H258.742V6.19431C258.742 6.72867 259.015 6.99585 259.562 6.99585ZM252.654 24V10.4501H256.566V18.6182L262.54 10.4501H266.452V24H262.54V15.8701L256.566 24H252.654ZM180.318 44.9389C178.664 44.9389 177.373 44.5254 176.444 43.6984C175.528 42.8587 175.07 41.6564 175.07 40.0915C175.07 38.5138 175.528 37.3115 176.444 36.4845C177.36 35.6575 178.645 35.244 180.299 35.244H183.085V33.2593H186.979V35.244H189.765C191.419 35.244 192.704 35.6575 193.62 36.4845C194.536 37.3115 194.994 38.5138 194.994 40.0915C194.994 41.6564 194.53 42.8587 193.601 43.6984C192.685 44.5254 191.4 44.9389 189.746 44.9389H186.979V47.1908H183.085V44.9389H180.318ZM183.085 41.58V38.6029H180.795C180.21 38.6029 179.777 38.7238 179.498 38.9655C179.23 39.2072 179.097 39.5826 179.097 40.0915C179.097 40.5622 179.243 40.9312 179.536 41.1984C179.828 41.4528 180.248 41.58 180.795 41.58H183.085ZM189.269 38.6029H186.979V41.58H189.269C189.816 41.58 190.236 41.4528 190.528 41.1984C190.821 40.9312 190.967 40.5622 190.967 40.0915C190.967 39.5826 190.827 39.2072 190.547 38.9655C190.28 38.7238 189.854 38.6029 189.269 38.6029ZM197.153 47V33.4501H205.474C207.064 33.4501 208.298 33.8445 209.176 34.6333C210.067 35.4094 210.512 36.5481 210.512 38.0494C210.512 39.538 210.067 40.6767 209.176 41.4655C208.298 42.2544 207.064 42.6488 205.474 42.6488H201.046V47H197.153ZM204.996 36.809H201.046V39.2899H204.996C206.002 39.2899 206.504 38.8764 206.504 38.0494C206.504 37.2225 206.002 36.809 204.996 36.809ZM212.677 47V33.4501H216.59V41.6182L222.563 33.4501H226.475V47H222.563V38.8701L216.59 47H212.677ZM237.431 38.4884C239.059 38.4884 240.325 38.8383 241.229 39.538C242.132 40.2251 242.584 41.2429 242.584 42.5915C242.584 44.0419 242.132 45.1425 241.229 45.8931C240.325 46.631 239.059 47 237.431 47H229.339V33.4501H241.362V36.809H233.232V38.4884H237.431ZM237.106 41.5419H233.232V43.6412H237.106C238.086 43.6412 238.576 43.2913 238.576 42.5915C238.576 41.8918 238.086 41.5419 237.106 41.5419ZM244.882 47V33.4501H256.562V36.599H248.795V38.3739H253.413V41.5991H248.795V43.6793H257.306V47H244.882ZM263.242 47V36.809H258.338V33.4501H272.04V36.809H267.136V47H263.242Z" fill="white"/>
<path d="M275.243 32L275.25 33.0436L274.349 32.6983L274 33.6634L274.977 34.0243L274.28 34.8639L275.106 35.5308L275.765 34.707L276.425 35.523L277.25 34.8561L276.553 34.0243L277.531 33.6634L277.182 32.6983L276.281 33.0436L276.288 32H275.243Z" fill="white"/>
<path d="M17.1602 57.3174C19.4535 57.3174 21.1628 57.7113 22.2883 58.4992C23.4279 59.287 23.9977 60.3211 23.9977 61.6014C23.9977 62.3892 23.7726 63.0575 23.3224 63.6062C22.8722 64.1549 22.3165 64.5417 21.6552 64.7668C22.4431 64.992 23.0973 65.3718 23.6178 65.9064C24.1384 66.427 24.3987 67.0812 24.3987 67.869C24.3987 69.4447 23.7726 70.6617 22.5205 71.5199C21.2683 72.3781 19.4675 72.8072 17.118 72.8072C15.8096 72.8072 14.6489 72.6243 13.636 72.2585C12.623 71.8927 11.8422 71.4284 11.2935 70.8657C10.7448 70.3029 10.3368 69.7472 10.0695 69.1985C9.80223 68.6358 9.65451 68.1082 9.62637 67.6158H13.9103C14.3324 68.5725 15.4016 69.0508 17.118 69.0508C19.0173 69.0508 19.967 68.6006 19.967 67.7002C19.967 66.9968 19.2073 66.645 17.6878 66.645H15.3876V63.2685H17.5401C18.9048 63.2685 19.5871 62.9238 19.5871 62.2345C19.5871 61.4607 18.7571 61.0738 17.0969 61.0738C15.5353 61.0738 14.5153 61.4185 14.037 62.1078H9.75299C9.90775 60.7572 10.6182 59.6247 11.8844 58.7102C13.1506 57.7817 14.9092 57.3174 17.1602 57.3174ZM37.939 72.554L37.0738 70.4436H30.4474L29.5821 72.554H25.1927L31.587 57.5706H36.2508L42.6029 72.554H37.939ZM31.9246 66.8983H35.5966L33.7606 62.4244L31.9246 66.8983Z" fill="white"/>
<path d="M49.5636 72.554V57.5706H64.3992V72.554H60.0731V61.327H53.8898V72.554H49.5636ZM67.555 72.554V57.5706H80.4702V61.0527H71.8812V63.0153H76.9882V66.5817H71.8812V68.882H81.2932V72.554H67.555ZM83.5473 72.554V57.5706H92.7483C94.507 57.5706 95.8716 58.0068 96.8424 58.879C97.8272 59.7372 98.3196 60.9964 98.3196 62.6565C98.3196 64.3026 97.8272 65.5617 96.8424 66.434C95.8716 67.3063 94.507 67.7424 92.7483 67.7424H87.8524V72.554H83.5473ZM92.2208 61.2848H87.8524V64.0282H92.2208C93.3322 64.0282 93.8879 63.571 93.8879 62.6565C93.8879 61.742 93.3322 61.2848 92.2208 61.2848ZM100.714 72.554V57.5706H110C111.604 57.5706 112.842 57.9435 113.714 58.6891C114.586 59.4207 115.022 60.4055 115.022 61.6436C115.022 62.3611 114.825 62.9731 114.431 63.4795C114.052 63.986 113.58 64.3659 113.018 64.6191C113.707 64.8724 114.277 65.3085 114.727 65.9275C115.191 66.5466 115.423 67.3344 115.423 68.2911C115.423 69.6136 114.966 70.6547 114.052 71.4144C113.137 72.1741 111.829 72.554 110.126 72.554H100.714ZM109.156 60.9472H104.956V63.1841H109.156C110.126 63.1841 110.612 62.8113 110.612 62.0656C110.612 61.32 110.126 60.9472 109.156 60.9472ZM109.219 66.5606H104.956V69.1774H109.219C110.401 69.1774 110.992 68.7413 110.992 67.869C110.992 66.9968 110.401 66.5606 109.219 66.5606ZM123.773 72.554H119.088L122.106 67.5525L115.479 57.5706H120.65L124.554 63.4795L128.12 57.5706H132.805L123.773 72.554ZM134.286 72.554V57.5706H138.612V63.1841H139.942C140.321 61.3833 141.208 59.9553 142.601 58.9001C144.007 57.845 145.668 57.3174 147.581 57.3174C149.818 57.3174 151.682 58.0279 153.173 59.4488C154.665 60.8698 155.41 62.7409 155.41 65.0623C155.41 67.3555 154.665 69.2196 153.173 70.6547C151.682 72.0897 149.818 72.8072 147.581 72.8072C145.668 72.8072 144.014 72.2796 142.622 71.2244C141.229 70.1552 140.335 68.7272 139.942 66.9405H138.612V72.554H134.286ZM145.07 67.869C145.689 68.6006 146.526 68.9664 147.581 68.9664C148.636 68.9664 149.473 68.6006 150.092 67.869C150.711 67.1234 151.021 66.1878 151.021 65.0623C151.021 63.9368 150.711 63.0082 150.092 62.2767C149.473 61.531 148.636 61.1582 147.581 61.1582C146.54 61.1582 145.703 61.531 145.07 62.2767C144.451 63.0082 144.141 63.9368 144.141 65.0623C144.141 66.1878 144.451 67.1234 145.07 67.869ZM170.251 72.8072C167.958 72.8072 166.079 72.0826 164.616 70.6336C163.167 69.1704 162.443 67.3133 162.443 65.0623C162.443 62.7972 163.167 60.9401 164.616 59.491C166.079 58.0419 167.958 57.3174 170.251 57.3174C171.222 57.3174 172.108 57.451 172.91 57.7184C173.726 57.9716 174.387 58.2952 174.893 58.6891C175.414 59.069 175.864 59.5121 176.244 60.0186C176.624 60.511 176.898 60.9683 177.067 61.3903C177.25 61.8124 177.37 62.2134 177.426 62.5932H173.036C172.431 61.6506 171.503 61.1793 170.251 61.1793C169.21 61.1793 168.38 61.5521 167.761 62.2978C167.156 63.0293 166.853 63.9509 166.853 65.0623C166.853 66.1737 167.156 67.1023 167.761 67.8479C168.38 68.5795 169.21 68.9453 170.251 68.9453C171.517 68.9453 172.453 68.481 173.057 67.5525H177.426C177.37 67.8761 177.264 68.2419 177.109 68.6499C176.955 69.0438 176.687 69.494 176.307 70.0005C175.942 70.5069 175.505 70.9642 174.999 71.3722C174.493 71.7661 173.824 72.1038 172.994 72.3851C172.164 72.6665 171.25 72.8072 170.251 72.8072ZM184.223 72.554V61.2848H178.8V57.5706H193.952V61.2848H188.528V72.554H184.223ZM205.797 72.554L204.931 70.4436H198.305L197.44 72.554H193.05L199.444 57.5706H204.108L210.46 72.554H205.797ZM199.782 66.8983H203.454L201.618 62.4244L199.782 66.8983ZM212.248 72.554V57.5706H221.534C223.138 57.5706 224.376 57.9435 225.248 58.6891C226.12 59.4207 226.556 60.4055 226.556 61.6436C226.556 62.3611 226.359 62.9731 225.966 63.4795C225.586 63.986 225.114 64.3659 224.552 64.6191C225.241 64.8724 225.811 65.3085 226.261 65.9275C226.725 66.5466 226.957 67.3344 226.957 68.2911C226.957 69.6136 226.5 70.6547 225.586 71.4144C224.671 72.1741 223.363 72.554 221.66 72.554H212.248ZM220.69 60.9472H216.49V63.1841H220.69C221.66 63.1841 222.146 62.8113 222.146 62.0656C222.146 61.32 221.66 60.9472 220.69 60.9472ZM220.753 66.5606H216.49V69.1774H220.753C221.935 69.1774 222.526 68.7413 222.526 67.869C222.526 66.9968 221.935 66.5606 220.753 66.5606ZM229.436 72.554V57.5706H233.762V63.8172L239.756 57.5706H245.285L238.405 64.7246L245.601 72.554H239.756L233.762 66.0119V72.554H229.436ZM253.999 72.554H249.314L252.332 67.5525L245.705 57.5706H250.876L254.78 63.4795L258.346 57.5706H263.031L253.999 72.554ZM264.575 67.4681V57.5706H268.712V67.4681H264.575ZM264.301 72.554V68.5021H268.986V72.554H264.301Z" fill="#AFFC41"/>
</svg>
